<svg width="72" height="48" viewBox="0 0 72 48" fill="none" xmlns="http://www.w3.org/2000/svg">
<rect x="2.52405" y="2.81763" width="66.8865" height="2.32047" fill="#EAE5E1"/>
<ellipse cx="2.31368" cy="3.97781" rx="2.31368" ry="2.55252" fill="#EAE5E1"/>
<ellipse cx="69.6208" cy="3.97781" rx="2.31368" ry="2.55252" fill="#EAE5E1"/>
<path d="M16.7074 0.961169C14.4797 -0.895205 9.43658 1.73466 8.3537 3.28164V46.6744C8.3537 48.7628 16.7074 43.8898 16.7074 46.6744C16.7074 48.9949 25.5252 44.586 25.9893 46.6744C26.3605 48.3451 30.6302 47.3705 32.7186 46.6744C33.2601 32.2101 34.0181 2.81754 32.7186 0.961169C31.0943 -1.3593 25.5252 0.961169 23.2047 3.28164C20.8842 5.60211 19.4919 3.28164 16.7074 0.961169Z" fill="#EAE5E1"/>
<path d="M55.2485 0.994128C57.4761 -0.862246 62.5193 1.76762 63.6022 3.3146V46.7073C63.6022 48.7958 55.2485 43.9228 55.2485 46.7073C55.2485 49.0278 46.4307 44.6189 45.9666 46.7073C45.5953 48.3781 41.3257 47.4035 39.2373 46.7073C38.6958 32.2431 37.9378 2.8505 39.2373 0.994128C40.8616 -1.32634 46.4307 0.994128 48.7512 3.3146C51.0716 5.63506 52.4639 3.3146 55.2485 0.994128Z" fill="#EAE5E1"/>
</svg>
