<svg width="83" height="83" viewBox="0 0 83 83" fill="none" xmlns="http://www.w3.org/2000/svg">
<circle cx="41.5" cy="41.5" r="39" stroke="#846058" stroke-width="5"/>
<path d="M32.7805 63.051L36.5764 62.102V34.2653L32.7805 33.3163V32.3673H41.0049C44.8009 32.3673 46.6988 34.2653 46.6988 38.0612V62.102L50.4947 63.051V64H32.7805V63.051ZM41.0049 28.5714C39.7396 28.5714 38.6852 28.1497 37.8417 27.3061C36.9981 26.4626 36.5764 25.4082 36.5764 24.1429C36.5764 22.8775 36.9981 21.8231 37.8417 20.9796C38.6852 20.1361 39.7396 19.7143 41.0049 19.7143C42.2702 19.7143 43.3247 20.1361 44.1682 20.9796C45.0117 21.8231 45.4335 22.8775 45.4335 24.1429C45.4335 25.4082 45.0117 26.4626 44.1682 27.3061C43.3247 28.1497 42.2702 28.5714 41.0049 28.5714Z" fill="#846058"/>
</svg>
