<svg width="97" height="44" viewBox="0 0 97 44" fill="none" xmlns="http://www.w3.org/2000/svg">
<path d="M62.087 15.4814C50.8343 2.42546 35.0918 5.40373 21.4767 5.40373C7.86163 5.40373 1.90504 0.723576 0.20315 2.42546C-1.92421 4.55282 13.0037 24.9754 28.7098 36.755C38.9211 44.4135 63.7889 39.7333 74.4257 36.755C85.0625 33.7767 94.5772 41.5688 95.2738 39.7333C96.335 36.937 96.3597 34.7613 95.2738 32.0748C94.3171 29.708 81.5923 33.5121 74.4257 29.522C68.048 25.9711 62.087 15.4814 62.087 15.4814Z" fill="#EAE5E1"/>
<path d="M17.3093 13.0909C21.9047 19.3157 38.7148 17.2071 45.0448 19.4317C53.9814 22.5722 52.0624 30.2941 58.8218 31.2779" stroke="#9CA181" stroke-width="1.70189" stroke-linecap="round"/>
<path d="M29.2223 11.9052C29.2223 11.9052 30.386 14.2941 31.5871 15.4421C32.9301 16.7257 36.972 18.2906 36.972 18.2906M42.472 19.0148C37.1692 20.9987 35.2859 22.3021 33.6296 24.927M47.5011 20.5657C48.2282 17.4122 47.9613 15.6212 45.3895 12.3554" stroke="#9CA181" stroke-width="1.70189" stroke-linecap="round" stroke-linejoin="round"/>
</svg>
